<svg >
<symbol id="instagram" width="24" height="25" viewBox="0 0 24 25" fill="none" xmlns="http://www.w3.org/2000/svg">
<path d="M7.03 0.58401C5.753 0.64401 4.881 0.84801 4.12 1.14701C3.31972 1.45016 2.59496 1.92378 1.996 2.53501C1.3873 3.13562 0.916425 3.86138 0.616003 4.66201C0.321003 5.42601 0.120003 6.30001 0.0640027 7.57601C0.00800272 8.85201 -0.00499728 9.26401 0.00100272 12.523C0.00700272 15.782 0.0220027 16.19 0.0840027 17.47C0.145003 18.747 0.348003 19.619 0.647003 20.381C0.955003 21.17 1.367 21.838 2.035 22.504C2.6362 23.113 3.36266 23.5838 4.164 23.884C4.927 24.179 5.8 24.38 7.077 24.436C8.355 24.492 8.766 24.505 12.024 24.499C15.282 24.493 15.692 24.478 16.971 24.417C18.251 24.357 19.118 24.152 19.881 23.854C20.6809 23.5507 21.4053 23.0771 22.004 22.466C22.613 21.8648 23.0838 21.1384 23.384 20.337C23.679 19.574 23.88 18.701 23.935 17.425C23.991 16.145 24.005 15.735 23.998 12.477C23.992 9.21901 23.978 8.81001 23.917 7.53001C23.857 6.25001 23.653 5.38201 23.353 4.61901C23.05 3.81917 22.5768 3.09478 21.966 2.49601C21.3651 1.88718 20.639 1.4163 19.838 1.11601C19.074 0.82201 18.202 0.62001 16.924 0.56601C15.647 0.50901 15.236 0.49401 11.977 0.50001C8.718 0.50601 8.31 0.52101 7.03 0.58401ZM7.17 22.277C6 22.227 5.365 22.032 4.942 21.869C4.41996 21.6783 3.9476 21.3724 3.56 20.974C3.16035 20.5881 2.85274 20.1171 2.66 19.596C2.495 19.173 2.297 18.538 2.243 17.368C2.183 16.104 2.171 15.724 2.163 12.52C2.157 9.31601 2.169 8.93701 2.224 7.67201C2.274 6.50301 2.47 5.86701 2.632 5.44401C2.848 4.88301 3.109 4.48401 3.527 4.06201C3.91323 3.66223 4.38457 3.35461 4.906 3.16201C5.329 2.99701 5.963 2.80101 7.133 2.74501C8.398 2.68501 8.777 2.67301 11.981 2.66501C15.184 2.65901 15.564 2.67101 16.831 2.72701C17.999 2.77701 18.635 2.97101 19.058 3.13501C19.618 3.35101 20.018 3.61001 20.44 4.03001C20.862 4.45001 21.121 4.84701 21.34 5.40801C21.505 5.83001 21.702 6.46401 21.757 7.63501C21.817 8.90001 21.831 9.28001 21.837 12.483C21.842 15.686 21.831 16.066 21.776 17.331C21.725 18.501 21.531 19.136 21.368 19.561C21.152 20.121 20.891 20.521 20.472 20.941C20.0861 21.3407 19.6151 21.6483 19.094 21.841C18.672 22.006 18.036 22.203 16.868 22.259C15.602 22.319 15.223 22.331 12.018 22.338C8.813 22.345 8.436 22.331 7.17 22.277ZM16.953 6.08601C16.9534 6.37086 17.0383 6.64919 17.1969 6.8858C17.3555 7.1224 17.5807 7.30666 17.844 7.41525C18.1074 7.52385 18.397 7.5519 18.6763 7.49587C18.9555 7.43984 19.2119 7.30224 19.413 7.10047C19.6141 6.8987 19.7508 6.64184 19.8058 6.36236C19.8609 6.08289 19.8318 5.79336 19.7223 5.5304C19.6128 5.26745 19.4278 5.04288 19.1906 4.8851C18.9535 4.72732 18.6748 4.64342 18.39 4.64401C18.0083 4.6448 17.6425 4.79714 17.373 5.06754C17.1035 5.33794 16.9525 5.70427 16.953 6.08601ZM5.839 12.512C5.84219 14.1461 6.49439 15.7121 7.65215 16.8653C8.80991 18.0186 10.3784 18.6647 12.0125 18.6615C13.6466 18.6583 15.2126 18.0061 16.3658 16.8484C17.5191 15.6906 18.1652 14.1221 18.162 12.488C18.1384 10.8674 17.4773 9.32124 16.3218 8.18463C15.1663 7.04801 13.6095 6.41244 11.9887 6.4156C10.3678 6.41875 8.81351 7.06039 7.66244 8.20149C6.51138 9.3426 5.85625 10.8913 5.839 12.512ZM8 12.508C7.99842 11.7169 8.23147 10.9431 8.66968 10.2844C9.10789 9.62571 9.73158 9.11178 10.4619 8.80757C11.1922 8.50336 11.9963 8.42253 12.7725 8.57532C13.5487 8.72811 14.2622 9.10765 14.8228 9.66594C15.3833 10.2242 15.7657 10.9362 15.9216 11.7118C16.0775 12.4874 15.9999 13.2918 15.6986 14.0234C15.3973 14.7549 14.8858 15.3806 14.2289 15.8214C13.572 16.2623 12.7991 16.4984 12.008 16.5C11.4827 16.5011 10.9624 16.3986 10.4767 16.1986C9.99095 15.9985 9.54941 15.7048 9.17723 15.3341C8.80505 14.9634 8.50953 14.523 8.30754 14.0381C8.10555 13.5532 8.00105 13.0333 8 12.508Z" fill="white"/>
</symbol>

<symbol id="facebook" width="21" height="21" viewBox="0 0 21 21" fill="none" xmlns="http://www.w3.org/2000/svg">
<path d="M20.3333 10.5C20.3333 4.98 15.8533 0.5 10.3333 0.5C4.81334 0.5 0.333344 4.98 0.333344 10.5C0.333344 15.34 3.77334 19.37 8.33334 20.3V13.5H6.33334V10.5H8.33334V8C8.33334 6.07 9.90334 4.5 11.8333 4.5H14.3333V7.5H12.3333C11.7833 7.5 11.3333 7.95 11.3333 8.5V10.5H14.3333V13.5H11.3333V20.45C16.3833 19.95 20.3333 15.69 20.3333 10.5Z" fill="white"/>
</symbol>

<symbol id="twitter" width="17" height="19" viewBox="0 0 17 19" fill="none" xmlns="http://www.w3.org/2000/svg">
<path d="M16.8229 18.1109C16.7583 18.2286 16.6634 18.3267 16.5479 18.3951C16.4325 18.4636 16.3008 18.4998 16.1667 18.5H11.6667C11.5404 18.5 11.4163 18.4681 11.3056 18.4073C11.195 18.3465 11.1015 18.2587 11.0338 18.1522L7.23791 12.1869L1.72166 18.2544C1.58718 18.3988 1.40119 18.4845 1.20401 18.4927C1.00683 18.5009 0.814344 18.4311 0.668291 18.2984C0.522238 18.1657 0.434388 17.9807 0.423786 17.7836C0.413184 17.5866 0.480685 17.3933 0.611655 17.2456L6.40259 10.8706L0.533843 1.65313C0.461563 1.53973 0.421101 1.40898 0.416693 1.27458C0.412286 1.14018 0.444095 1.00707 0.50879 0.889177C0.573485 0.771288 0.668686 0.672962 0.784425 0.604494C0.900163 0.536026 1.03218 0.499935 1.16666 0.5H5.66666C5.79288 0.500039 5.91706 0.531936 6.02768 0.592735C6.13829 0.653535 6.23178 0.74127 6.29947 0.847813L10.0954 6.81312L15.6117 0.745625C15.7461 0.601174 15.9321 0.515547 16.1293 0.507309C16.3265 0.49907 16.519 0.568884 16.665 0.701615C16.8111 0.834346 16.8989 1.01929 16.9095 1.21636C16.9201 1.41343 16.8526 1.60674 16.7217 1.75438L10.9307 8.12469L16.7995 17.3478C16.8713 17.4613 16.9114 17.5919 16.9156 17.7262C16.9197 17.8604 16.8877 17.9933 16.8229 18.1109Z" fill="white"/>
</symbol>


<symbol id="youtube" width="20" height="15" viewBox="0 0 20 15" fill="none" xmlns="http://www.w3.org/2000/svg">
<path d="M8 10.5L13.19 7.5L8 4.5V10.5ZM19.56 2.67C19.69 3.14 19.78 3.77 19.84 4.57C19.91 5.37 19.94 6.06 19.94 6.66L20 7.5C20 9.69 19.84 11.3 19.56 12.33C19.31 13.23 18.73 13.81 17.83 14.06C17.36 14.19 16.5 14.28 15.18 14.34C13.88 14.41 12.69 14.44 11.59 14.44L10 14.5C5.81 14.5 3.2 14.34 2.17 14.06C1.27 13.81 0.69 13.23 0.44 12.33C0.31 11.86 0.22 11.23 0.16 10.43C0.0900001 9.63 0.0599999 8.94 0.0599999 8.34L0 7.5C0 5.31 0.16 3.7 0.44 2.67C0.69 1.77 1.27 1.19 2.17 0.94C2.64 0.81 3.5 0.72 4.82 0.66C6.12 0.59 7.31 0.56 8.41 0.56L10 0.5C14.19 0.5 16.8 0.66 17.83 0.94C18.73 1.19 19.31 1.77 19.56 2.67Z" fill="white"/>
</symbol>


</svg>
