<svg width="20" height="18" viewBox="0 0 20 18" fill="none" xmlns="http://www.w3.org/2000/svg">
<path d="M0.833252 10.8334C0.833252 9.82089 1.65406 9.00008 2.66659 9.00008C3.67911 9.00008 4.49992 9.82089 4.49992 10.8334V14.5001C4.49992 15.5126 3.67911 16.3334 2.66659 16.3334C1.65406 16.3334 0.833252 15.5126 0.833252 14.5001V10.8334Z" stroke="#5F6D7E" stroke-width="1.67"/>
<path d="M8.16658 3.50008C8.16658 2.48756 8.9874 1.66675 9.99992 1.66675C11.0124 1.66675 11.8333 2.48756 11.8333 3.50008V14.5001C11.8333 15.5126 11.0124 16.3334 9.99992 16.3334C8.9874 16.3334 8.16658 15.5126 8.16658 14.5001V3.50008Z" stroke="#5F6D7E" stroke-width="1.67"/>
<path d="M15.4999 7.16675C15.4999 6.15423 16.3207 5.33341 17.3333 5.33341C18.3458 5.33341 19.1666 6.15423 19.1666 7.16675V14.5001C19.1666 15.5126 18.3458 16.3334 17.3333 16.3334C16.3207 16.3334 15.4999 15.5126 15.4999 14.5001V7.16675Z" stroke="#5F6D7E" stroke-width="1.67"/>
</svg>
