<svg id = "dotsMore" width="16" height="4" viewBox="0 0 16 4" fill="none" xmlns="http://www.w3.org/2000/svg">

<path d="M2.16683 2.83341C2.62707 2.83341 3.00016 2.46032 3.00016 2.00008C3.00016 1.53984 2.62707 1.16675 2.16683 1.16675C1.70659 1.16675 1.3335 1.53984 1.3335 2.00008C1.3335 2.46032 1.70659 2.83341 2.16683 2.83341Z" stroke="currentColor" stroke-width="1.5" stroke-linecap="round" stroke-linejoin="round"/>
<path d="M8.00033 2.83341C8.46056 2.83341 8.83366 2.46032 8.83366 2.00008C8.83366 1.53984 8.46056 1.16675 8.00033 1.16675C7.54009 1.16675 7.16699 1.53984 7.16699 2.00008C7.16699 2.46032 7.54009 2.83341 8.00033 2.83341Z" stroke="currentColor" stroke-width="1.5" stroke-linecap="round" stroke-linejoin="round"/>
<path d="M13.8333 2.83341C14.2936 2.83341 14.6667 2.46032 14.6667 2.00008C14.6667 1.53984 14.2936 1.16675 13.8333 1.16675C13.3731 1.16675 13 1.53984 13 2.00008C13 2.46032 13.3731 2.83341 13.8333 2.83341Z" stroke="currentColor" stroke-width="1.5" stroke-linecap="round" stroke-linejoin="round"/>

</svg>
