<svg >
<symbol id="bell" width="currentWidth" height="currentWidth" viewBox="0 0 94 94" fill="none" xmlns="http://www.w3.org/2000/svg">
<g clip-path="url(#clip0_1023_1502)">
<path d="M85.7751 73.4506L84.8873 72.6673C82.3694 70.4226 80.165 67.8493 78.3334 65.0167C76.3319 61.1075 75.1334 56.8371 74.8084 52.4573V39.5584C74.8257 32.6797 72.3305 26.0315 67.7917 20.8628C63.2529 15.6941 56.9828 12.3607 50.1595 11.4889V8.1206C50.1595 7.1961 49.7923 6.30946 49.1386 5.65574C48.4848 5.00202 47.5982 4.63477 46.6737 4.63477C45.7492 4.63477 44.8626 5.00202 44.2089 5.65574C43.5551 6.30946 43.1879 7.1961 43.1879 8.1206V11.5412C36.4258 12.4757 30.2315 15.8293 25.7523 20.9806C21.273 26.1319 18.8125 32.732 18.8262 39.5584V52.4573C18.5013 56.8371 17.3027 61.1075 15.3012 65.0167C13.5018 67.8428 11.3328 70.4158 8.85177 72.6673L7.96399 73.4506V80.8139H85.7751V73.4506Z" fill="#00008B"/>
<path d="M40.0021 83.5547C40.231 85.2098 41.0512 86.7262 42.311 87.8237C43.5709 88.9213 45.1854 89.5259 46.8562 89.5259C48.5271 89.5259 50.1416 88.9213 51.4014 87.8237C52.6613 86.7262 53.4814 85.2098 53.7104 83.5547H40.0021Z" fill="#00008B"/>
</g>
<defs>
<clipPath id="clip0_1023_1502">
<rect width="currentWidth" height="currentWidth" fill="white"/>
</clipPath>
</defs>
</symbol>
</svg>
