<svg width="22" height="22" viewBox="0 0 22 22" fill="none" xmlns="http://www.w3.org/2000/svg">
<path d="M3.41929 20.5839L3.79837 19.8399L3.41929 20.5839ZM1.4163 18.5809L2.16029 18.2018L1.4163 18.5809ZM16.9172 18.5809L16.1732 18.2018L16.9172 18.5809ZM14.9142 20.5839L14.5351 19.8399L14.9142 20.5839ZM14.9142 5.08297L14.5351 5.82696L14.9142 5.08297ZM16.9172 7.08596L16.1732 7.46504L16.9172 7.08596ZM3.41929 5.08297L3.79837 5.82696L3.41929 5.08297ZM1.4163 7.08596L2.16029 7.46504L1.4163 7.08596ZM17.4167 16.5817C16.9556 16.5817 16.5817 16.9556 16.5817 17.4167C16.5817 17.8779 16.9556 18.2517 17.4167 18.2517V16.5817ZM3.74841 4.58342C3.74841 5.04457 4.12226 5.41842 4.58342 5.41842C5.04457 5.41842 5.41842 5.04457 5.41842 4.58342H3.74841ZM4.92268 14.9802C4.58955 15.2991 4.57801 15.8277 4.8969 16.1608C5.21579 16.4939 5.74435 16.5055 6.07748 16.1866L4.92268 14.9802ZM12.256 16.1866C12.5891 16.5055 13.1177 16.4939 13.4366 16.1608C13.7555 15.8277 13.7439 15.2991 13.4108 14.9802L12.256 16.1866ZM8.25008 5.41842H10.0834V3.74841H8.25008V5.41842ZM16.5817 11.9167V13.7501H18.2517V11.9167H16.5817ZM10.0834 20.2484H8.25008V21.9184H10.0834V20.2484ZM1.75175 13.7501V11.9167H0.0817481V13.7501H1.75175ZM8.25008 20.2484C6.95285 20.2484 6.03014 20.2478 5.30775 20.1887C4.59511 20.1305 4.15126 20.0197 3.79837 19.8399L3.04021 21.3279C3.66775 21.6476 4.35584 21.7865 5.17176 21.8532C5.97793 21.9191 6.98041 21.9184 8.25008 21.9184V20.2484ZM0.0817481 13.7501C0.0817481 15.0198 0.0810987 16.0222 0.146965 16.8284C0.213628 17.6443 0.352561 18.3324 0.672311 18.96L2.16029 18.2018C1.98049 17.8489 1.86964 17.4051 1.81142 16.6924C1.7524 15.97 1.75175 15.0473 1.75175 13.7501H0.0817481ZM3.79837 19.8399C3.09308 19.4805 2.51966 18.9071 2.16029 18.2018L0.672311 18.96C1.19179 19.9795 2.02068 20.8084 3.04021 21.3279L3.79837 19.8399ZM16.5817 13.7501C16.5817 15.0473 16.5811 15.97 16.5221 16.6924C16.4639 17.4051 16.353 17.8489 16.1732 18.2018L17.6612 18.96C17.9809 18.3324 18.1199 17.6443 18.1865 16.8284C18.2524 16.0222 18.2517 15.0198 18.2517 13.7501H16.5817ZM10.0834 21.9184C11.3531 21.9184 12.3556 21.9191 13.1617 21.8532C13.9777 21.7865 14.6657 21.6476 15.2933 21.3279L14.5351 19.8399C14.1822 20.0197 13.7384 20.1305 13.0257 20.1887C12.3034 20.2478 11.3806 20.2484 10.0834 20.2484V21.9184ZM16.1732 18.2018C15.8138 18.9071 15.2404 19.4805 14.5351 19.8399L15.2933 21.3279C16.3128 20.8084 17.1417 19.9795 17.6612 18.96L16.1732 18.2018ZM10.0834 5.41842C11.3806 5.41842 12.3034 5.41906 13.0257 5.47809C13.7384 5.53631 14.1822 5.64716 14.5351 5.82696L15.2933 4.33898C14.6657 4.01923 13.9777 3.8803 13.1617 3.81363C12.3556 3.74777 11.3531 3.74841 10.0834 3.74841V5.41842ZM18.2517 11.9167C18.2517 10.6471 18.2524 9.6446 18.1865 8.83843C18.1199 8.02251 17.9809 7.33442 17.6612 6.70688L16.1732 7.46504C16.353 7.81792 16.4639 8.26178 16.5221 8.97442C16.5811 9.69681 16.5817 10.6195 16.5817 11.9167H18.2517ZM14.5351 5.82696C15.2404 6.18632 15.8138 6.75975 16.1732 7.46504L17.6612 6.70688C17.1417 5.68735 16.3128 4.85845 15.2933 4.33898L14.5351 5.82696ZM8.25008 3.74841C6.98041 3.74841 5.97793 3.74777 5.17176 3.81363C4.35584 3.8803 3.66775 4.01923 3.04021 4.33898L3.79837 5.82696C4.15126 5.64716 4.59511 5.53631 5.30775 5.47809C6.03014 5.41906 6.95285 5.41842 8.25008 5.41842V3.74841ZM1.75175 11.9167C1.75175 10.6195 1.7524 9.69681 1.81142 8.97442C1.86964 8.26178 1.98049 7.81792 2.16029 7.46504L0.672311 6.70688C0.352561 7.33442 0.213628 8.02251 0.146965 8.83843C0.0810987 9.6446 0.0817481 10.6471 0.0817481 11.9167H1.75175ZM3.04021 4.33898C2.02068 4.85845 1.19179 5.68735 0.672311 6.70688L2.16029 7.46504C2.51966 6.75975 3.09308 6.18632 3.79837 5.82696L3.04021 4.33898ZM8.25008 1.75175H16.5001V0.0817481H8.25008V1.75175ZM20.2484 5.50008V13.7501H21.9184V5.50008H20.2484ZM20.2484 13.7501C20.2484 15.314 18.9806 16.5817 17.4167 16.5817V18.2517C19.903 18.2517 21.9184 16.2363 21.9184 13.7501H20.2484ZM16.5001 1.75175C18.5702 1.75175 20.2484 3.42993 20.2484 5.50008H21.9184C21.9184 2.50762 19.4925 0.0817481 16.5001 0.0817481V1.75175ZM8.25008 0.0817481C5.76388 0.0817481 3.74841 2.09721 3.74841 4.58342H5.41842C5.41842 3.01953 6.6862 1.75175 8.25008 1.75175V0.0817481ZM6.07748 16.1866C7.77964 14.5572 10.5539 14.5572 12.256 16.1866L13.4108 14.9802C11.0629 12.7327 7.27061 12.7327 4.92268 14.9802L6.07748 16.1866ZM10.7912 11.4922C10.7912 12.2814 10.1121 12.9827 9.19683 12.9827V14.6527C10.9649 14.6527 12.4612 13.2717 12.4612 11.4922H10.7912ZM9.19683 12.9827C8.28156 12.9827 7.6025 12.2814 7.6025 11.4922H5.9325C5.9325 13.2717 7.42875 14.6527 9.19683 14.6527V12.9827ZM7.6025 11.4922C7.6025 10.7031 8.28155 10.0017 9.19683 10.0017V8.33175C7.42875 8.33175 5.9325 9.71274 5.9325 11.4922H7.6025ZM9.19683 10.0017C10.1121 10.0017 10.7912 10.7031 10.7912 11.4922H12.4612C12.4612 9.71274 10.9649 8.33175 9.19683 8.33175V10.0017Z" fill="#5F6D7E"/>
</svg>
