<svg >

<symbol id = "dashboard" width="22" height="20" viewBox="0 0 22 20" fill="none" xmlns="http://www.w3.org/2000/svg">
<path d="M0.916748 8.64846L9.6244 2.19945C10.4336 1.60018 11.5666 1.60018 12.3758 2.19945L21.0834 8.64846M4.27786 6.15918V16.1163C4.27786 17.2947 5.28107 18.25 6.5186 18.25H7.63897H14.3612H15.4816C16.7191 18.25 17.7223 17.2947 17.7223 16.1163V6.15918M8.75934 18.25V11.849C8.75934 11.2598 9.26095 10.7821 9.87971 10.7821H12.1205C12.7392 10.7821 13.2408 11.2598 13.2408 11.849V18.25" stroke="currentColor" stroke-width="1.67" stroke-linecap="round"/>
</symbol>

<symbol id = "tasks" width="23" height="22" viewBox="0 0 23 22" fill="none" xmlns="http://www.w3.org/2000/svg">
<path d="M8.33333 0.916748L13.8333 0.916748C16.4002 0.916748 17.6837 0.916748 18.6641 1.4163C19.5265 1.85572 20.2277 2.55688 20.6671 3.41929C21.1667 4.39972 21.1667 5.68317 21.1667 8.25008V13.7501C21.1667 16.317 21.1667 17.6004 20.6671 18.5809C20.2277 19.4433 19.5265 20.1444 18.6641 20.5839C17.6837 21.0834 16.4002 21.0834 13.8333 21.0834H8.33333M8.33333 0.916748C5.76643 0.916748 4.48297 0.916748 3.50254 1.4163C2.64013 1.85572 1.93897 2.55688 1.49955 3.41929C1 4.39972 1 5.68317 1 8.25008L1 13.7501C1 16.317 1 17.6004 1.49955 18.5809C1.93897 19.4433 2.64013 20.1444 3.50254 20.5839C4.48297 21.0834 5.76643 21.0834 8.33333 21.0834M8.33333 0.916748L8.33333 21.0834M8.33333 11.0001L22.0833 11.0001" stroke="currentColor" stroke-width="1.67" stroke-linecap="round"/>
</symbol>

<symbol id = "inbox"  width="20" height="20" viewBox="0 0 20 20" fill="none" xmlns="http://www.w3.org/2000/svg"> 
<path d="M9.99992 0.833252C4.93731 0.833252 0.833252 4.93731 0.833252 9.99992C0.833252 15.0625 4.93731 19.1666 9.99992 19.1666C15.0625 19.1666 19.1666 15.0625 19.1666 9.99992C19.1666 4.93731 15.0625 0.833252 9.99992 0.833252ZM9.99992 0.833252V9.99992M9.99992 9.99992L6.33325 18.4038M9.99992 9.99992L1.596 6.33325" stroke="currentColor" stroke-width="1.67" stroke-linecap="round"/>
</symbol>

<symbol id = "analyse" width="20" height="18" viewBox="0 0 20 18" fill="none" xmlns="http://www.w3.org/2000/svg">
<path d="M0.833252 10.8334C0.833252 9.82089 1.65406 9.00008 2.66659 9.00008C3.67911 9.00008 4.49992 9.82089 4.49992 10.8334V14.5001C4.49992 15.5126 3.67911 16.3334 2.66659 16.3334C1.65406 16.3334 0.833252 15.5126 0.833252 14.5001V10.8334Z" stroke="currentColor" stroke-width="1.67"/>
<path d="M8.16658 3.50008C8.16658 2.48756 8.9874 1.66675 9.99992 1.66675C11.0124 1.66675 11.8333 2.48756 11.8333 3.50008V14.5001C11.8333 15.5126 11.0124 16.3334 9.99992 16.3334C8.9874 16.3334 8.16658 15.5126 8.16658 14.5001V3.50008Z" stroke="currentColor" stroke-width="1.67"/>
<path d="M15.4999 7.16675C15.4999 6.15423 16.3207 5.33341 17.3333 5.33341C18.3458 5.33341 19.1666 6.15423 19.1666 7.16675V14.5001C19.1666 15.5126 18.3458 16.3334 17.3333 16.3334C16.3207 16.3334 15.4999 15.5126 15.4999 14.5001V7.16675Z" stroke="currentColor" stroke-width="1.67"/>
</symbol>

<symbol id = "members" width="22" height="22" viewBox="0 0 22 22" fill="none" xmlns="http://www.w3.org/2000/svg">
<path d="M3.41929 20.5839L3.79837 19.8399L3.41929 20.5839ZM1.4163 18.5809L2.16029 18.2018L1.4163 18.5809ZM16.9172 18.5809L16.1732 18.2018L16.9172 18.5809ZM14.9142 20.5839L14.5351 19.8399L14.9142 20.5839ZM14.9142 5.08297L14.5351 5.82696L14.9142 5.08297ZM16.9172 7.08596L16.1732 7.46504L16.9172 7.08596ZM3.41929 5.08297L3.79837 5.82696L3.41929 5.08297ZM1.4163 7.08596L2.16029 7.46504L1.4163 7.08596ZM17.4167 16.5817C16.9556 16.5817 16.5817 16.9556 16.5817 17.4167C16.5817 17.8779 16.9556 18.2517 17.4167 18.2517V16.5817ZM3.74841 4.58342C3.74841 5.04457 4.12226 5.41842 4.58342 5.41842C5.04457 5.41842 5.41842 5.04457 5.41842 4.58342H3.74841ZM4.92268 14.9802C4.58955 15.2991 4.57801 15.8277 4.8969 16.1608C5.21579 16.4939 5.74435 16.5055 6.07748 16.1866L4.92268 14.9802ZM12.256 16.1866C12.5891 16.5055 13.1177 16.4939 13.4366 16.1608C13.7555 15.8277 13.7439 15.2991 13.4108 14.9802L12.256 16.1866ZM8.25008 5.41842H10.0834V3.74841H8.25008V5.41842ZM16.5817 11.9167V13.7501H18.2517V11.9167H16.5817ZM10.0834 20.2484H8.25008V21.9184H10.0834V20.2484ZM1.75175 13.7501V11.9167H0.0817481V13.7501H1.75175ZM8.25008 20.2484C6.95285 20.2484 6.03014 20.2478 5.30775 20.1887C4.59511 20.1305 4.15126 20.0197 3.79837 19.8399L3.04021 21.3279C3.66775 21.6476 4.35584 21.7865 5.17176 21.8532C5.97793 21.9191 6.98041 21.9184 8.25008 21.9184V20.2484ZM0.0817481 13.7501C0.0817481 15.0198 0.0810987 16.0222 0.146965 16.8284C0.213628 17.6443 0.352561 18.3324 0.672311 18.96L2.16029 18.2018C1.98049 17.8489 1.86964 17.4051 1.81142 16.6924C1.7524 15.97 1.75175 15.0473 1.75175 13.7501H0.0817481ZM3.79837 19.8399C3.09308 19.4805 2.51966 18.9071 2.16029 18.2018L0.672311 18.96C1.19179 19.9795 2.02068 20.8084 3.04021 21.3279L3.79837 19.8399ZM16.5817 13.7501C16.5817 15.0473 16.5811 15.97 16.5221 16.6924C16.4639 17.4051 16.353 17.8489 16.1732 18.2018L17.6612 18.96C17.9809 18.3324 18.1199 17.6443 18.1865 16.8284C18.2524 16.0222 18.2517 15.0198 18.2517 13.7501H16.5817ZM10.0834 21.9184C11.3531 21.9184 12.3556 21.9191 13.1617 21.8532C13.9777 21.7865 14.6657 21.6476 15.2933 21.3279L14.5351 19.8399C14.1822 20.0197 13.7384 20.1305 13.0257 20.1887C12.3034 20.2478 11.3806 20.2484 10.0834 20.2484V21.9184ZM16.1732 18.2018C15.8138 18.9071 15.2404 19.4805 14.5351 19.8399L15.2933 21.3279C16.3128 20.8084 17.1417 19.9795 17.6612 18.96L16.1732 18.2018ZM10.0834 5.41842C11.3806 5.41842 12.3034 5.41906 13.0257 5.47809C13.7384 5.53631 14.1822 5.64716 14.5351 5.82696L15.2933 4.33898C14.6657 4.01923 13.9777 3.8803 13.1617 3.81363C12.3556 3.74777 11.3531 3.74841 10.0834 3.74841V5.41842ZM18.2517 11.9167C18.2517 10.6471 18.2524 9.6446 18.1865 8.83843C18.1199 8.02251 17.9809 7.33442 17.6612 6.70688L16.1732 7.46504C16.353 7.81792 16.4639 8.26178 16.5221 8.97442C16.5811 9.69681 16.5817 10.6195 16.5817 11.9167H18.2517ZM14.5351 5.82696C15.2404 6.18632 15.8138 6.75975 16.1732 7.46504L17.6612 6.70688C17.1417 5.68735 16.3128 4.85845 15.2933 4.33898L14.5351 5.82696ZM8.25008 3.74841C6.98041 3.74841 5.97793 3.74777 5.17176 3.81363C4.35584 3.8803 3.66775 4.01923 3.04021 4.33898L3.79837 5.82696C4.15126 5.64716 4.59511 5.53631 5.30775 5.47809C6.03014 5.41906 6.95285 5.41842 8.25008 5.41842V3.74841ZM1.75175 11.9167C1.75175 10.6195 1.7524 9.69681 1.81142 8.97442C1.86964 8.26178 1.98049 7.81792 2.16029 7.46504L0.672311 6.70688C0.352561 7.33442 0.213628 8.02251 0.146965 8.83843C0.0810987 9.6446 0.0817481 10.6471 0.0817481 11.9167H1.75175ZM3.04021 4.33898C2.02068 4.85845 1.19179 5.68735 0.672311 6.70688L2.16029 7.46504C2.51966 6.75975 3.09308 6.18632 3.79837 5.82696L3.04021 4.33898ZM8.25008 1.75175H16.5001V0.0817481H8.25008V1.75175ZM20.2484 5.50008V13.7501H21.9184V5.50008H20.2484ZM20.2484 13.7501C20.2484 15.314 18.9806 16.5817 17.4167 16.5817V18.2517C19.903 18.2517 21.9184 16.2363 21.9184 13.7501H20.2484ZM16.5001 1.75175C18.5702 1.75175 20.2484 3.42993 20.2484 5.50008H21.9184C21.9184 2.50762 19.4925 0.0817481 16.5001 0.0817481V1.75175ZM8.25008 0.0817481C5.76388 0.0817481 3.74841 2.09721 3.74841 4.58342H5.41842C5.41842 3.01953 6.6862 1.75175 8.25008 1.75175V0.0817481ZM6.07748 16.1866C7.77964 14.5572 10.5539 14.5572 12.256 16.1866L13.4108 14.9802C11.0629 12.7327 7.27061 12.7327 4.92268 14.9802L6.07748 16.1866ZM10.7912 11.4922C10.7912 12.2814 10.1121 12.9827 9.19683 12.9827V14.6527C10.9649 14.6527 12.4612 13.2717 12.4612 11.4922H10.7912ZM9.19683 12.9827C8.28156 12.9827 7.6025 12.2814 7.6025 11.4922H5.9325C5.9325 13.2717 7.42875 14.6527 9.19683 14.6527V12.9827ZM7.6025 11.4922C7.6025 10.7031 8.28155 10.0017 9.19683 10.0017V8.33175C7.42875 8.33175 5.9325 9.71274 5.9325 11.4922H7.6025ZM9.19683 10.0017C10.1121 10.0017 10.7912 10.7031 10.7912 11.4922H12.4612C12.4612 9.71274 10.9649 8.33175 9.19683 8.33175V10.0017Z" fill="currentColor"/>
</symbol>

<symbol id = "settings" width="20" height="18" viewBox="0 0 20 18" fill="none" xmlns="http://www.w3.org/2000/svg">
<path d="M13.6667 3.50008L18.25 3.50008M1.75 3.50008L10 3.50008M1.75 14.5001L10 14.5001M1.75 9.00008H6.33333M10 9.00008H18.25M13.6667 14.5001H18.25M13.6667 1.66675V5.33341M6.33333 7.16675V10.8334M13.6667 12.6667V16.3334" stroke="currentColor" stroke-width="1.67" stroke-linecap="round"/>

</symbol>

</svg>


