<svg >
<symbol id="site-logo" width="199" height="29" viewBox="0 0 199 29" fill="none" xmlns="http://www.w3.org/2000/svg">
<rect x="4.40741" y="4.40741" width="47.1852" height="19.3927" rx="9.69633" stroke="currentColor" stroke-width="8.81483"/>
<path d="M74.2148 15.7402H69.7734V13.4082H74.2148C74.9883 13.4082 75.6133 13.2832 76.0898 13.0332C76.5664 12.7832 76.9141 12.4395 77.1328 12.002C77.3594 11.5566 77.4727 11.0488 77.4727 10.4785C77.4727 9.93945 77.3594 9.43555 77.1328 8.9668C76.9141 8.49023 76.5664 8.10742 76.0898 7.81836C75.6133 7.5293 74.9883 7.38477 74.2148 7.38477H70.6758V22.1035H67.7344V5.04102H74.2148C75.5352 5.04102 76.6562 5.27539 77.5781 5.74414C78.5078 6.20508 79.2148 6.8457 79.6992 7.66602C80.1836 8.47852 80.4258 9.4082 80.4258 10.4551C80.4258 11.5566 80.1836 12.502 79.6992 13.291C79.2148 14.0801 78.5078 14.6855 77.5781 15.1074C76.6562 15.5293 75.5352 15.7402 74.2148 15.7402ZM85.6172 11.8379V22.1035H82.793V9.42383H85.4883L85.6172 11.8379ZM89.4961 9.3418L89.4727 11.9668C89.3008 11.9355 89.1133 11.9121 88.9102 11.8965C88.7148 11.8809 88.5195 11.873 88.3242 11.873C87.8398 11.873 87.4141 11.9434 87.0469 12.084C86.6797 12.2168 86.3711 12.4121 86.1211 12.6699C85.8789 12.9199 85.6914 13.2246 85.5586 13.584C85.4258 13.9434 85.3477 14.3457 85.3242 14.791L84.6797 14.8379C84.6797 14.041 84.7578 13.3027 84.9141 12.623C85.0703 11.9434 85.3047 11.3457 85.6172 10.8301C85.9375 10.3145 86.3359 9.91211 86.8125 9.62305C87.2969 9.33398 87.8555 9.18945 88.4883 9.18945C88.6602 9.18945 88.8438 9.20508 89.0391 9.23633C89.2422 9.26758 89.3945 9.30273 89.4961 9.3418ZM90.4219 15.9043V15.6348C90.4219 14.7207 90.5547 13.873 90.8203 13.0918C91.0859 12.3027 91.4688 11.6191 91.9688 11.041C92.4766 10.4551 93.0938 10.002 93.8203 9.68164C94.5547 9.35352 95.3828 9.18945 96.3047 9.18945C97.2344 9.18945 98.0625 9.35352 98.7891 9.68164C99.5234 10.002 100.145 10.4551 100.652 11.041C101.16 11.6191 101.547 12.3027 101.812 13.0918C102.078 13.873 102.211 14.7207 102.211 15.6348V15.9043C102.211 16.8184 102.078 17.666 101.812 18.4473C101.547 19.2285 101.16 19.9121 100.652 20.498C100.145 21.0762 99.5273 21.5293 98.8008 21.8574C98.0742 22.1777 97.25 22.3379 96.3281 22.3379C95.3984 22.3379 94.5664 22.1777 93.832 21.8574C93.1055 21.5293 92.4883 21.0762 91.9805 20.498C91.4727 19.9121 91.0859 19.2285 90.8203 18.4473C90.5547 17.666 90.4219 16.8184 90.4219 15.9043ZM93.2461 15.6348V15.9043C93.2461 16.4746 93.3047 17.0137 93.4219 17.5215C93.5391 18.0293 93.7227 18.4746 93.9727 18.8574C94.2227 19.2402 94.543 19.541 94.9336 19.7598C95.3242 19.9785 95.7891 20.0879 96.3281 20.0879C96.8516 20.0879 97.3047 19.9785 97.6875 19.7598C98.0781 19.541 98.3984 19.2402 98.6484 18.8574C98.8984 18.4746 99.082 18.0293 99.1992 17.5215C99.3242 17.0137 99.3867 16.4746 99.3867 15.9043V15.6348C99.3867 15.0723 99.3242 14.541 99.1992 14.041C99.082 13.5332 98.8945 13.084 98.6367 12.6934C98.3867 12.3027 98.0664 11.998 97.6758 11.7793C97.293 11.5527 96.8359 11.4395 96.3047 11.4395C95.7734 11.4395 95.3125 11.5527 94.9219 11.7793C94.5391 11.998 94.2227 12.3027 93.9727 12.6934C93.7227 13.084 93.5391 13.5332 93.4219 14.041C93.3047 14.541 93.2461 15.0723 93.2461 15.6348ZM112.312 19.4785V4.10352H115.148V22.1035H112.582L112.312 19.4785ZM104.062 15.9043V15.6582C104.062 14.6973 104.176 13.8223 104.402 13.0332C104.629 12.2363 104.957 11.5527 105.387 10.9824C105.816 10.4043 106.34 9.96289 106.957 9.6582C107.574 9.3457 108.27 9.18945 109.043 9.18945C109.809 9.18945 110.48 9.33789 111.059 9.63477C111.637 9.93164 112.129 10.3574 112.535 10.9121C112.941 11.459 113.266 12.1152 113.508 12.8809C113.75 13.6387 113.922 14.4824 114.023 15.4121V16.1973C113.922 17.1035 113.75 17.9316 113.508 18.6816C113.266 19.4316 112.941 20.0801 112.535 20.627C112.129 21.1738 111.633 21.5957 111.047 21.8926C110.469 22.1895 109.793 22.3379 109.02 22.3379C108.254 22.3379 107.562 22.1777 106.945 21.8574C106.336 21.5371 105.816 21.0879 105.387 20.5098C104.957 19.9316 104.629 19.252 104.402 18.4707C104.176 17.6816 104.062 16.8262 104.062 15.9043ZM106.887 15.6582V15.9043C106.887 16.4824 106.938 17.0215 107.039 17.5215C107.148 18.0215 107.316 18.4629 107.543 18.8457C107.77 19.2207 108.062 19.5176 108.422 19.7363C108.789 19.9473 109.227 20.0527 109.734 20.0527C110.375 20.0527 110.902 19.9121 111.316 19.6309C111.73 19.3496 112.055 18.9707 112.289 18.4941C112.531 18.0098 112.695 17.4707 112.781 16.877V14.7559C112.734 14.2949 112.637 13.8652 112.488 13.4668C112.348 13.0684 112.156 12.7207 111.914 12.4238C111.672 12.1191 111.371 11.8848 111.012 11.7207C110.66 11.5488 110.242 11.4629 109.758 11.4629C109.242 11.4629 108.805 11.5723 108.445 11.791C108.086 12.0098 107.789 12.3105 107.555 12.6934C107.328 13.0762 107.16 13.5215 107.051 14.0293C106.941 14.5371 106.887 15.0801 106.887 15.6582ZM125.73 19.1152V9.42383H128.566V22.1035H125.895L125.73 19.1152ZM126.129 16.4785L127.078 16.4551C127.078 17.3066 126.984 18.0918 126.797 18.8105C126.609 19.5215 126.32 20.1426 125.93 20.6738C125.539 21.1973 125.039 21.6074 124.43 21.9043C123.82 22.1934 123.09 22.3379 122.238 22.3379C121.621 22.3379 121.055 22.248 120.539 22.0684C120.023 21.8887 119.578 21.6113 119.203 21.2363C118.836 20.8613 118.551 20.373 118.348 19.7715C118.145 19.1699 118.043 18.4512 118.043 17.6152V9.42383H120.867V17.6387C120.867 18.0996 120.922 18.4863 121.031 18.7988C121.141 19.1035 121.289 19.3496 121.477 19.5371C121.664 19.7246 121.883 19.8574 122.133 19.9355C122.383 20.0137 122.648 20.0527 122.93 20.0527C123.734 20.0527 124.367 19.8965 124.828 19.584C125.297 19.2637 125.629 18.834 125.824 18.2949C126.027 17.7559 126.129 17.1504 126.129 16.4785ZM136.641 20.0879C137.102 20.0879 137.516 19.998 137.883 19.8184C138.258 19.6309 138.559 19.373 138.785 19.0449C139.02 18.7168 139.148 18.3379 139.172 17.9082H141.832C141.816 18.7285 141.574 19.4746 141.105 20.1465C140.637 20.8184 140.016 21.3535 139.242 21.752C138.469 22.1426 137.613 22.3379 136.676 22.3379C135.707 22.3379 134.863 22.1738 134.145 21.8457C133.426 21.5098 132.828 21.0488 132.352 20.4629C131.875 19.877 131.516 19.2012 131.273 18.4355C131.039 17.6699 130.922 16.8496 130.922 15.9746V15.5645C130.922 14.6895 131.039 13.8691 131.273 13.1035C131.516 12.3301 131.875 11.6504 132.352 11.0645C132.828 10.4785 133.426 10.0215 134.145 9.69336C134.863 9.35742 135.703 9.18945 136.664 9.18945C137.68 9.18945 138.57 9.39258 139.336 9.79883C140.102 10.1973 140.703 10.7559 141.141 11.4746C141.586 12.1855 141.816 13.0137 141.832 13.959H139.172C139.148 13.4902 139.031 13.0684 138.82 12.6934C138.617 12.3105 138.328 12.0059 137.953 11.7793C137.586 11.5527 137.145 11.4395 136.629 11.4395C136.059 11.4395 135.586 11.5566 135.211 11.791C134.836 12.0176 134.543 12.3301 134.332 12.7285C134.121 13.1191 133.969 13.5605 133.875 14.0527C133.789 14.5371 133.746 15.041 133.746 15.5645V15.9746C133.746 16.498 133.789 17.0059 133.875 17.498C133.961 17.9902 134.109 18.4316 134.32 18.8223C134.539 19.2051 134.836 19.5137 135.211 19.748C135.586 19.9746 136.062 20.0879 136.641 20.0879ZM149.812 9.42383V11.4863H142.664V9.42383H149.812ZM144.727 6.31836H147.551V18.5996C147.551 18.9902 147.605 19.291 147.715 19.502C147.832 19.7051 147.992 19.8418 148.195 19.9121C148.398 19.9824 148.637 20.0176 148.91 20.0176C149.105 20.0176 149.293 20.0059 149.473 19.9824C149.652 19.959 149.797 19.9355 149.906 19.9121L149.918 22.0684C149.684 22.1387 149.41 22.2012 149.098 22.2559C148.793 22.3105 148.441 22.3379 148.043 22.3379C147.395 22.3379 146.82 22.2246 146.32 21.998C145.82 21.7637 145.43 21.3848 145.148 20.8613C144.867 20.3379 144.727 19.6426 144.727 18.7754V6.31836ZM163.547 12.166V14.498H154.488V12.166H163.547ZM155.215 5.04102V22.1035H152.273V5.04102H155.215ZM165.809 5.04102V22.1035H162.879V5.04102H165.809ZM172.055 9.42383V22.1035H169.219V9.42383H172.055ZM169.031 6.0957C169.031 5.66602 169.172 5.31055 169.453 5.0293C169.742 4.74023 170.141 4.5957 170.648 4.5957C171.148 4.5957 171.543 4.74023 171.832 5.0293C172.121 5.31055 172.266 5.66602 172.266 6.0957C172.266 6.51758 172.121 6.86914 171.832 7.15039C171.543 7.43164 171.148 7.57227 170.648 7.57227C170.141 7.57227 169.742 7.43164 169.453 7.15039C169.172 6.86914 169.031 6.51758 169.031 6.0957ZM179.273 19.8652L182.379 9.42383H185.309L180.902 22.1035H179.074L179.273 19.8652ZM176.895 9.42383L180.059 19.9121L180.211 22.1035H178.383L173.953 9.42383H176.895ZM192.48 22.3379C191.543 22.3379 190.695 22.1855 189.938 21.8809C189.188 21.5684 188.547 21.1348 188.016 20.5801C187.492 20.0254 187.09 19.373 186.809 18.623C186.527 17.873 186.387 17.0645 186.387 16.1973V15.7285C186.387 14.7363 186.531 13.8379 186.82 13.0332C187.109 12.2285 187.512 11.541 188.027 10.9707C188.543 10.3926 189.152 9.95117 189.855 9.64648C190.559 9.3418 191.32 9.18945 192.141 9.18945C193.047 9.18945 193.84 9.3418 194.52 9.64648C195.199 9.95117 195.762 10.3809 196.207 10.9355C196.66 11.4824 196.996 12.1348 197.215 12.8926C197.441 13.6504 197.555 14.4863 197.555 15.4004V16.6074H187.758V14.5801H194.766V14.3574C194.75 13.8496 194.648 13.373 194.461 12.9277C194.281 12.4824 194.004 12.123 193.629 11.8496C193.254 11.5762 192.754 11.4395 192.129 11.4395C191.66 11.4395 191.242 11.541 190.875 11.7441C190.516 11.9395 190.215 12.2246 189.973 12.5996C189.73 12.9746 189.543 13.4277 189.41 13.959C189.285 14.4824 189.223 15.0723 189.223 15.7285V16.1973C189.223 16.752 189.297 17.2676 189.445 17.7441C189.602 18.2129 189.828 18.623 190.125 18.9746C190.422 19.3262 190.781 19.6035 191.203 19.8066C191.625 20.002 192.105 20.0996 192.645 20.0996C193.324 20.0996 193.93 19.9629 194.461 19.6895C194.992 19.416 195.453 19.0293 195.844 18.5293L197.332 19.9707C197.059 20.3691 196.703 20.752 196.266 21.1191C195.828 21.4785 195.293 21.7715 194.66 21.998C194.035 22.2246 193.309 22.3379 192.48 22.3379Z" fill="currentColor"/>
</symbol>
</svg>
