<svg width="142" height="29" viewBox="0 0 142 29" fill="none" xmlns="http://www.w3.org/2000/svg">
<rect x="4.40741" y="4.40741" width="47.1852" height="19.3927" rx="9.69633" stroke="#0177FB" stroke-width="8.81483"/>
<path d="M77.8125 16.5488H80.7422C80.6484 17.666 80.3359 18.6621 79.8047 19.5371C79.2734 20.4043 78.5273 21.0879 77.5664 21.5879C76.6055 22.0879 75.4375 22.3379 74.0625 22.3379C73.0078 22.3379 72.0586 22.1504 71.2148 21.7754C70.3711 21.3926 69.6484 20.8535 69.0469 20.1582C68.4453 19.4551 67.9844 18.6074 67.6641 17.6152C67.3516 16.623 67.1953 15.5137 67.1953 14.2871V12.8691C67.1953 11.6426 67.3555 10.5332 67.6758 9.54102C68.0039 8.54883 68.4727 7.70117 69.082 6.99805C69.6914 6.28711 70.4219 5.74414 71.2734 5.36914C72.1328 4.99414 73.0977 4.80664 74.168 4.80664C75.5273 4.80664 76.6758 5.05664 77.6133 5.55664C78.5508 6.05664 79.2773 6.74805 79.793 7.63086C80.3164 8.51367 80.6367 9.52539 80.7539 10.666H77.8242C77.7461 9.93164 77.5742 9.30273 77.3086 8.7793C77.0508 8.25586 76.668 7.85742 76.1602 7.58398C75.6523 7.30273 74.9883 7.16211 74.168 7.16211C73.4961 7.16211 72.9102 7.28711 72.4102 7.53711C71.9102 7.78711 71.4922 8.1543 71.1562 8.63867C70.8203 9.12305 70.5664 9.7207 70.3945 10.4316C70.2305 11.1348 70.1484 11.9395 70.1484 12.8457V14.2871C70.1484 15.1465 70.2227 15.9277 70.3711 16.6309C70.5273 17.3262 70.7617 17.9238 71.0742 18.4238C71.3945 18.9238 71.8008 19.3105 72.293 19.584C72.7852 19.8574 73.375 19.9941 74.0625 19.9941C74.8984 19.9941 75.5742 19.8613 76.0898 19.5957C76.6133 19.3301 77.0078 18.9434 77.2734 18.4355C77.5469 17.9199 77.7266 17.291 77.8125 16.5488ZM85.9219 4.10352V22.1035H83.1094V4.10352H85.9219ZM85.4297 15.2949L84.5156 15.2832C84.5234 14.4082 84.6445 13.5996 84.8789 12.8574C85.1211 12.1152 85.457 11.4707 85.8867 10.9238C86.3242 10.3691 86.8477 9.94336 87.457 9.64648C88.0664 9.3418 88.7422 9.18945 89.4844 9.18945C90.1094 9.18945 90.6719 9.27539 91.1719 9.44727C91.6797 9.61914 92.1172 9.89648 92.4844 10.2793C92.8516 10.6543 93.1289 11.1465 93.3164 11.7559C93.5117 12.3574 93.6094 13.0918 93.6094 13.959V22.1035H90.7734V13.9355C90.7734 13.3262 90.6836 12.8418 90.5039 12.4824C90.332 12.123 90.0781 11.8652 89.7422 11.709C89.4062 11.5449 88.9961 11.4629 88.5117 11.4629C88.0039 11.4629 87.5547 11.5645 87.1641 11.7676C86.7812 11.9707 86.4609 12.248 86.2031 12.5996C85.9453 12.9512 85.75 13.3574 85.6172 13.8184C85.4922 14.2793 85.4297 14.7715 85.4297 15.2949ZM103.617 19.5605V13.5137C103.617 13.0605 103.535 12.6699 103.371 12.3418C103.207 12.0137 102.957 11.7598 102.621 11.5801C102.293 11.4004 101.879 11.3105 101.379 11.3105C100.918 11.3105 100.52 11.3887 100.184 11.5449C99.8477 11.7012 99.5859 11.9121 99.3984 12.1777C99.2109 12.4434 99.1172 12.7441 99.1172 13.0801H96.3047C96.3047 12.5801 96.4258 12.0957 96.668 11.627C96.9102 11.1582 97.2617 10.7402 97.7227 10.373C98.1836 10.0059 98.7344 9.7168 99.375 9.50586C100.016 9.29492 100.734 9.18945 101.531 9.18945C102.484 9.18945 103.328 9.34961 104.062 9.66992C104.805 9.99023 105.387 10.4746 105.809 11.123C106.238 11.7637 106.453 12.5684 106.453 13.5371V19.1738C106.453 19.752 106.492 20.2715 106.57 20.7324C106.656 21.1855 106.777 21.5801 106.934 21.916V22.1035H104.039C103.906 21.7988 103.801 21.4121 103.723 20.9434C103.652 20.4668 103.617 20.0059 103.617 19.5605ZM104.027 14.3926L104.051 16.1387H102.023C101.5 16.1387 101.039 16.1895 100.641 16.291C100.242 16.3848 99.9102 16.5254 99.6445 16.7129C99.3789 16.9004 99.1797 17.127 99.0469 17.3926C98.9141 17.6582 98.8477 17.959 98.8477 18.2949C98.8477 18.6309 98.9258 18.9395 99.082 19.2207C99.2383 19.4941 99.4648 19.709 99.7617 19.8652C100.066 20.0215 100.434 20.0996 100.863 20.0996C101.441 20.0996 101.945 19.9824 102.375 19.748C102.812 19.5059 103.156 19.2129 103.406 18.8691C103.656 18.5176 103.789 18.1855 103.805 17.873L104.719 19.127C104.625 19.4473 104.465 19.791 104.238 20.1582C104.012 20.5254 103.715 20.877 103.348 21.2129C102.988 21.541 102.555 21.8105 102.047 22.0215C101.547 22.2324 100.969 22.3379 100.312 22.3379C99.4844 22.3379 98.7461 22.1738 98.0977 21.8457C97.4492 21.5098 96.9414 21.0605 96.5742 20.498C96.207 19.9277 96.0234 19.2832 96.0234 18.5645C96.0234 17.8926 96.1484 17.2988 96.3984 16.7832C96.6562 16.2598 97.0312 15.8223 97.5234 15.4707C98.0234 15.1191 98.6328 14.8535 99.3516 14.6738C100.07 14.4863 100.891 14.3926 101.812 14.3926H104.027ZM112.242 11.8379V22.1035H109.418V9.42383H112.113L112.242 11.8379ZM116.121 9.3418L116.098 11.9668C115.926 11.9355 115.738 11.9121 115.535 11.8965C115.34 11.8809 115.145 11.873 114.949 11.873C114.465 11.873 114.039 11.9434 113.672 12.084C113.305 12.2168 112.996 12.4121 112.746 12.6699C112.504 12.9199 112.316 13.2246 112.184 13.584C112.051 13.9434 111.973 14.3457 111.949 14.791L111.305 14.8379C111.305 14.041 111.383 13.3027 111.539 12.623C111.695 11.9434 111.93 11.3457 112.242 10.8301C112.562 10.3145 112.961 9.91211 113.438 9.62305C113.922 9.33398 114.48 9.18945 115.113 9.18945C115.285 9.18945 115.469 9.20508 115.664 9.23633C115.867 9.26758 116.02 9.30273 116.121 9.3418ZM120.914 4.10352V22.1035H118.078V4.10352H120.914ZM127.031 9.42383V22.1035H124.195V9.42383H127.031ZM124.008 6.0957C124.008 5.66602 124.148 5.31055 124.43 5.0293C124.719 4.74023 125.117 4.5957 125.625 4.5957C126.125 4.5957 126.52 4.74023 126.809 5.0293C127.098 5.31055 127.242 5.66602 127.242 6.0957C127.242 6.51758 127.098 6.86914 126.809 7.15039C126.52 7.43164 126.125 7.57227 125.625 7.57227C125.117 7.57227 124.719 7.43164 124.43 7.15039C124.148 6.86914 124.008 6.51758 124.008 6.0957ZM135.715 22.3379C134.777 22.3379 133.93 22.1855 133.172 21.8809C132.422 21.5684 131.781 21.1348 131.25 20.5801C130.727 20.0254 130.324 19.373 130.043 18.623C129.762 17.873 129.621 17.0645 129.621 16.1973V15.7285C129.621 14.7363 129.766 13.8379 130.055 13.0332C130.344 12.2285 130.746 11.541 131.262 10.9707C131.777 10.3926 132.387 9.95117 133.09 9.64648C133.793 9.3418 134.555 9.18945 135.375 9.18945C136.281 9.18945 137.074 9.3418 137.754 9.64648C138.434 9.95117 138.996 10.3809 139.441 10.9355C139.895 11.4824 140.23 12.1348 140.449 12.8926C140.676 13.6504 140.789 14.4863 140.789 15.4004V16.6074H130.992V14.5801H138V14.3574C137.984 13.8496 137.883 13.373 137.695 12.9277C137.516 12.4824 137.238 12.123 136.863 11.8496C136.488 11.5762 135.988 11.4395 135.363 11.4395C134.895 11.4395 134.477 11.541 134.109 11.7441C133.75 11.9395 133.449 12.2246 133.207 12.5996C132.965 12.9746 132.777 13.4277 132.645 13.959C132.52 14.4824 132.457 15.0723 132.457 15.7285V16.1973C132.457 16.752 132.531 17.2676 132.68 17.7441C132.836 18.2129 133.062 18.623 133.359 18.9746C133.656 19.3262 134.016 19.6035 134.438 19.8066C134.859 20.002 135.34 20.0996 135.879 20.0996C136.559 20.0996 137.164 19.9629 137.695 19.6895C138.227 19.416 138.688 19.0293 139.078 18.5293L140.566 19.9707C140.293 20.3691 139.938 20.752 139.5 21.1191C139.062 21.4785 138.527 21.7715 137.895 21.998C137.27 22.2246 136.543 22.3379 135.715 22.3379Z" fill="#0177FB"/>
</svg>
