<svg width="22" height="22" viewBox="0 0 22 22" fill="none" xmlns="http://www.w3.org/2000/svg">
<path d="M8.25008 0.916504L13.7501 0.916504C16.317 0.916504 17.6004 0.916504 18.5809 1.41606C19.4433 1.85548 20.1444 2.55664 20.5839 3.41905C21.0834 4.39948 21.0834 5.68293 21.0834 8.24984V13.7498C21.0834 16.3167 21.0834 17.6002 20.5839 18.5806C20.1444 19.443 19.4433 20.1442 18.5809 20.5836C17.6004 21.0832 16.317 21.0832 13.7501 21.0832H8.25008M8.25008 0.916504C5.68317 0.916504 4.39972 0.916504 3.41929 1.41606C2.55688 1.85548 1.85572 2.55664 1.4163 3.41905C0.916748 4.39948 0.916748 5.68293 0.916748 8.24984L0.916748 13.7498C0.916748 16.3167 0.916748 17.6002 1.4163 18.5806C1.85572 19.443 2.55688 20.1442 3.41929 20.5836C4.39972 21.0832 5.68317 21.0832 8.25008 21.0832M8.25008 0.916504L8.25008 21.0832M8.25008 10.9998L22.0001 10.9998" stroke="#5F6D7E" stroke-width="1.67" stroke-linecap="round"/>
</svg>
