<svg>

<symbol id="chat" width="16" height="16" viewBox="0 0 16 16" fill="none" xmlns="http://www.w3.org/2000/svg">
<path fill-rule="evenodd" clip-rule="evenodd" d="M12.7144 12.7132C10.677 14.7508 7.66001 15.191 5.19111 14.0493C4.82663 13.9025 4.52782 13.7839 4.24374 13.7839C3.45249 13.7886 2.46761 14.5558 1.95574 14.0446C1.44387 13.5326 2.21167 12.547 2.21167 11.751C2.21167 11.4668 2.09777 11.1734 1.95105 10.8082C0.808717 8.33967 1.24957 5.32171 3.287 3.28472C5.88789 0.682873 10.1135 0.682873 12.7144 3.28405C15.32 5.88992 15.3153 10.112 12.7144 12.7132Z" stroke="#94A3B8" stroke-width="1.5" stroke-linecap="round" stroke-linejoin="round"/>
<path d="M10.6262 8.27523H10.6322" stroke="#94A3B8" stroke-width="2" stroke-linecap="round" stroke-linejoin="round"/>
<path d="M7.95387 8.27523H7.95987" stroke="#94A3B8" stroke-width="2" stroke-linecap="round" stroke-linejoin="round"/>
<path d="M5.28102 8.27523H5.28702" stroke="#94A3B8" stroke-width="2" stroke-linecap="round" stroke-linejoin="round"/>
</symbol>

<symbol id="link" width="16" height="16" viewBox="0 0 16 16" fill="none" xmlns="http://www.w3.org/2000/svg">
<path d="M8.70657 7.29346C10.2066 8.79346 10.2066 11.2201 8.70657 12.7135C7.20657 14.2068 4.7799 14.2135 3.28656 12.7135C1.79323 11.2135 1.78656 8.78679 3.28656 7.29346" stroke="#94A3B8" stroke-width="1.5" stroke-linecap="round" stroke-linejoin="round"/>
<path d="M7.06014 8.93992C5.50014 7.37992 5.50014 4.84659 7.06014 3.27992C8.62014 1.71326 11.1535 1.71992 12.7201 3.27992C14.2868 4.83992 14.2801 7.37326 12.7201 8.93992" stroke="#94A3B8" stroke-width="1.5" stroke-linecap="round" stroke-linejoin="round"/>
</symbol>

<symbol id = "likes" width="16" height="16" viewBox="0 0 16 16" fill="none" xmlns="http://www.w3.org/2000/svg">
<path d="M5.59326 12.3267V5.5534C5.59326 5.28673 5.67326 5.02673 5.81993 4.80673L7.63993 2.10006C7.92659 1.66673 8.63993 1.36006 9.24659 1.58673C9.89993 1.80673 10.3333 2.54006 10.1933 3.1934L9.84659 5.3734C9.81993 5.5734 9.87326 5.7534 9.98659 5.8934C10.0999 6.02007 10.2666 6.10006 10.4466 6.10006H13.1866C13.7133 6.10006 14.1666 6.3134 14.4333 6.68673C14.6866 7.04673 14.7333 7.5134 14.5666 7.98673L12.9266 12.9801C12.7199 13.8067 11.8199 14.4801 10.9266 14.4801H8.32659C7.87993 14.4801 7.25326 14.3267 6.96659 14.0401L6.11326 13.3801C5.78659 13.1334 5.59326 12.7401 5.59326 12.3267Z" fill="#306BFF"/>
<path d="M3.4735 4.25342H2.78683C1.7535 4.25342 1.3335 4.65342 1.3335 5.64008V12.3468C1.3335 13.3334 1.7535 13.7334 2.78683 13.7334H3.4735C4.50683 13.7334 4.92683 13.3334 4.92683 12.3468V5.64008C4.92683 4.65342 4.50683 4.25342 3.4735 4.25342Z" fill="#306BFF"/>
</symbol>

<symbol id = "calender" width="16" height="16" viewBox="0 0 16 16" fill="none" xmlns="http://www.w3.org/2000/svg">
<path d="M5.3335 1.33325V3.33325" stroke="#94A3B8" stroke-width="1.5" stroke-miterlimit="10" stroke-linecap="round" stroke-linejoin="round"/>
<path d="M10.6665 1.33325V3.33325" stroke="#94A3B8" stroke-width="1.5" stroke-miterlimit="10" stroke-linecap="round" stroke-linejoin="round"/>
<path d="M2.3335 6.06006H13.6668" stroke="#94A3B8" stroke-width="1.5" stroke-miterlimit="10" stroke-linecap="round" stroke-linejoin="round"/>
<path d="M14 5.66659V11.3333C14 13.3333 13 14.6666 10.6667 14.6666H5.33333C3 14.6666 2 13.3333 2 11.3333V5.66659C2 3.66659 3 2.33325 5.33333 2.33325H10.6667C13 2.33325 14 3.66659 14 5.66659Z" stroke="#94A3B8" stroke-width="1.5" stroke-miterlimit="10" stroke-linecap="round" stroke-linejoin="round"/>
<path d="M10.463 9.13338H10.469" stroke="#94A3B8" stroke-width="1.5" stroke-linecap="round" stroke-linejoin="round"/>
<path d="M10.463 11.1334H10.469" stroke="#94A3B8" stroke-width="1.5" stroke-linecap="round" stroke-linejoin="round"/>
<path d="M7.99715 9.13338H8.00314" stroke="#94A3B8" stroke-width="1.5" stroke-linecap="round" stroke-linejoin="round"/>
<path d="M7.99715 11.1334H8.00314" stroke="#94A3B8" stroke-width="1.5" stroke-linecap="round" stroke-linejoin="round"/>
<path d="M5.52938 9.13338H5.53537" stroke="#94A3B8" stroke-width="1.5" stroke-linecap="round" stroke-linejoin="round"/>
<path d="M5.52938 11.1334H5.53537" stroke="#94A3B8" stroke-width="1.5" stroke-linecap="round" stroke-linejoin="round"/>
</symbol>

<symbol id = "doubleTick" width="20" height="20" viewBox="0 0 20 20" fill="none" xmlns="http://www.w3.org/2000/svg">
<path d="M5.83301 9.99992L9.99967 14.1666L18.333 5.83325" stroke="#78C552" stroke-width="1.5" stroke-linecap="round" stroke-linejoin="round"/>
<path d="M9.99984 9.99992L14.1665 5.83325M1.6665 9.99992L5.83317 14.1666L1.6665 9.99992Z" stroke="#78C552" stroke-width="1.5" stroke-linecap="round" stroke-linejoin="round"/>
</symbol>

</svg>
