<svg >

<symbol id="profile" width="25" height="24" viewBox="0 0 25 24" fill="none" xmlns="http://www.w3.org/2000/svg">
<path d="M4.5 18C4.5 16.9391 4.92143 15.9217 5.67157 15.1716C6.42172 14.4214 7.43913 14 8.5 14H16.5C17.5609 14 18.5783 14.4214 19.3284 15.1716C20.0786 15.9217 20.5 16.9391 20.5 18C20.5 18.5304 20.2893 19.0391 19.9142 19.4142C19.5391 19.7893 19.0304 20 18.5 20H6.5C5.96957 20 5.46086 19.7893 5.08579 19.4142C4.71071 19.0391 4.5 18.5304 4.5 18Z" stroke="black" stroke-width="2" stroke-linejoin="round"/>
<path d="M12.5 10C14.1569 10 15.5 8.65685 15.5 7C15.5 5.34315 14.1569 4 12.5 4C10.8431 4 9.5 5.34315 9.5 7C9.5 8.65685 10.8431 10 12.5 10Z" stroke="black" stroke-width="2"/>
</symbol>

<symbol id="calendar" width="24" height="24" viewBox="0 0 24 24" fill="none" xmlns="http://www.w3.org/2000/svg">
<path d="M19 4H18V3C18 2.45 17.55 2 17 2C16.45 2 16 2.45 16 3V4H8V3C8 2.45 7.55 2 7 2C6.45 2 6 2.45 6 3V4H5C3.89 4 3.01 4.9 3.01 6L3 20C3 20.5304 3.21071 21.0391 3.58579 21.4142C3.96086 21.7893 4.46957 22 5 22H19C20.1 22 21 21.1 21 20V6C21 4.9 20.1 4 19 4ZM19 19C19 19.55 18.55 20 18 20H6C5.45 20 5 19.55 5 19V9H19V19ZM7 11H9V13H7V11ZM11 11H13V13H11V11ZM15 11H17V13H15V11Z" fill="black"/>
</symbol>

<symbol id="flag" width="25" height="24" viewBox="0 0 25 24" fill="none" xmlns="http://www.w3.org/2000/svg">
<path d="M8.5 3V5M8.5 5H20.5L18.5 9L20.5 13H8.5M8.5 5V13M8.5 21V13" stroke="black" stroke-width="1.5" stroke-linecap="round" stroke-linejoin="round"/>
</symbol>

<symbol id="comment" width="24" height="24" viewBox="0 0 24 24" fill="none" xmlns="http://www.w3.org/2000/svg">
<path d="M7.18287 16.958H7.93287C7.93287 16.7591 7.85385 16.5683 7.7132 16.4277C7.57255 16.287 7.38178 16.208 7.18287 16.208V16.958ZM12.5419 16.958V16.208C12.3536 16.2082 12.1722 16.2792 12.0339 16.407L12.5419 16.958ZM3.83887 6.75C3.83887 6.32312 3.92296 5.90042 4.08635 5.50605C4.24974 5.11167 4.48923 4.75335 4.79112 4.45155C5.09302 4.14975 5.45142 3.91037 5.84584 3.7471C6.24026 3.58384 6.66299 3.49987 7.08987 3.5V2C5.83009 2 4.62191 2.50044 3.73111 3.39124C2.84031 4.28204 2.33987 5.49022 2.33987 6.75H3.83887ZM3.83887 12.958V6.75H2.33987L2.33887 12.958H3.83887ZM7.08887 16.208C6.22691 16.208 5.40026 15.8656 4.79077 15.2561C4.18128 14.6466 3.83887 13.82 3.83887 12.958H2.33887C2.33887 14.2178 2.83931 15.426 3.73011 16.3168C4.62091 17.2076 5.82909 17.708 7.08887 17.708V16.208ZM7.16087 16.208H7.08987V17.708H7.16187L7.16087 16.208ZM7.18287 16.208H7.16087V17.708H7.18287V16.208ZM7.93287 20.75V16.958H6.43287V20.75H7.93287ZM7.51387 20.566C7.54958 20.5329 7.59418 20.5109 7.64221 20.5028C7.69023 20.4947 7.73958 20.5008 7.78419 20.5203C7.8288 20.5399 7.86673 20.572 7.89332 20.6128C7.91991 20.6536 7.934 20.7013 7.93387 20.75H6.43387C6.43387 21.84 7.72887 22.407 8.52987 21.67L7.51387 20.566ZM12.0339 16.407L7.51387 20.566L8.52987 21.67L13.0499 17.51L12.0339 16.407ZM16.9109 16.208H12.5419L12.5409 17.708H16.9109V16.208ZM20.1609 12.958C20.1609 13.82 19.8185 14.6466 19.209 15.2561C18.5995 15.8656 17.7728 16.208 16.9109 16.208V17.708C18.1706 17.708 19.3788 17.2076 20.2696 16.3168C21.1604 15.426 21.6609 14.2178 21.6609 12.958H20.1609ZM20.1609 6.75V12.958H21.6609V6.75H20.1609ZM16.9099 3.5C17.7718 3.5 18.5985 3.84241 19.208 4.4519C19.8175 5.0614 20.1609 5.88805 20.1609 6.75H21.6609C21.6609 5.49022 21.1594 4.28204 20.2686 3.39124C19.3778 2.50044 18.1696 2 16.9099 2V3.5ZM7.08787 3.5H16.9099V2H7.08887L7.08787 3.5Z" fill="black"/>
</symbol>

<symbol id="search" width="24" height="24" viewBox="0 0 24 24" fill="none" xmlns="http://www.w3.org/2000/svg">
<path d="M10.77 18.3002C9.2807 18.3002 7.82485 17.8586 6.58655 17.0312C5.34825 16.2038 4.38311 15.0278 3.81318 13.6518C3.24325 12.2759 3.09413 10.7619 3.38468 9.30121C3.67523 7.84053 4.39239 6.49881 5.44548 5.44572C6.49857 4.39263 7.84029 3.67547 9.30096 3.38492C10.7616 3.09438 12.2757 3.2435 13.6516 3.81342C15.0275 4.38335 16.2036 5.34849 17.031 6.58679C17.8584 7.8251 18.3 9.28094 18.3 10.7702C18.3 11.7591 18.1052 12.7383 17.7268 13.6518C17.3484 14.5654 16.7937 15.3955 16.0945 16.0948C15.3953 16.794 14.5652 17.3486 13.6516 17.727C12.738 18.1055 11.7588 18.3002 10.77 18.3002ZM10.77 4.75024C9.58331 4.75024 8.42327 5.10213 7.43657 5.76142C6.44988 6.42071 5.68084 7.35778 5.22672 8.45414C4.77259 9.55049 4.65377 10.7569 4.88528 11.9208C5.11679 13.0847 5.68824 14.1538 6.52735 14.9929C7.36647 15.832 8.43556 16.4034 9.59945 16.6349C10.7633 16.8665 11.9697 16.7476 13.0661 16.2935C14.1624 15.8394 15.0995 15.0704 15.7588 14.0837C16.4181 13.097 16.77 11.9369 16.77 10.7502C16.77 9.15894 16.1379 7.63282 15.0126 6.5076C13.8874 5.38238 12.3613 4.75024 10.77 4.75024Z" fill="currentColor"/>
<path d="M20 20.75C19.9014 20.7504 19.8038 20.7312 19.7128 20.6934C19.6218 20.6557 19.5392 20.6001 19.47 20.53L15.34 16.4C15.2075 16.2578 15.1354 16.0697 15.1388 15.8754C15.1422 15.6811 15.2209 15.4958 15.3583 15.3583C15.4958 15.2209 15.6811 15.1422 15.8754 15.1388C16.0697 15.1354 16.2578 15.2075 16.4 15.34L20.53 19.47C20.6704 19.6106 20.7493 19.8012 20.7493 20C20.7493 20.1987 20.6704 20.3893 20.53 20.53C20.4607 20.6001 20.3782 20.6557 20.2872 20.6934C20.1961 20.7312 20.0985 20.7504 20 20.75Z" fill="currentColor"/>
</symbol>

</svg>
