<svg>

<symbol id="close-icon" width="24" height="24" viewBox="0 0 24 24" fill="none" xmlns="http://www.w3.org/2000/svg">
<g clip-path="url(#clip0_1023_193)">
<path d="M24 21.3333C24 22.0406 23.719 22.7189 23.219 23.219C22.7189 23.719 22.0406 24 21.3333 24H2.66667C1.95942 24 1.28115 23.719 0.781049 23.219C0.280952 22.7189 0 22.0406 0 21.3333V2.66667C0 1.95942 0.280952 1.28115 0.781049 0.781049C1.28115 0.280952 1.95942 0 2.66667 0L21.3333 0C22.0406 0 22.7189 0.280952 23.219 0.781049C23.719 1.28115 24 1.95942 24 2.66667V21.3333Z" fill="currentColor"/>
<path d="M14.3526 12.0041L19.8446 6.51212C20.1571 6.19958 20.3326 5.77573 20.3326 5.33379C20.3326 4.89185 20.1571 4.468 19.8446 4.15546C19.5321 3.84301 19.1082 3.66748 18.6663 3.66748C18.2243 3.66748 17.8005 3.84301 17.4879 4.15546L11.9959 9.64746L6.50394 4.15546C6.1914 3.84301 5.76755 3.66748 5.32561 3.66748C4.88367 3.66748 4.45982 3.84301 4.14728 4.15546C3.83483 4.468 3.6593 4.89185 3.6593 5.33379C3.6593 5.77573 3.83483 6.19958 4.14728 6.51212L9.63928 12.0041L4.13394 17.5095C3.90037 17.7423 3.74121 18.0393 3.67664 18.3628C3.61206 18.6862 3.64499 19.0216 3.77125 19.3263C3.8975 19.631 4.11139 19.8913 4.3858 20.0743C4.66021 20.2573 4.98278 20.3547 5.31261 20.3541C5.73928 20.3541 6.16594 20.1915 6.49128 19.8661L11.9966 14.3601L17.4886 19.8521C17.8139 20.1775 18.2406 20.3401 18.6673 20.3401C19.0939 20.3401 19.5199 20.1775 19.8459 19.8521C20.1584 19.5396 20.3339 19.1157 20.3339 18.6738C20.3339 18.2319 20.1584 17.808 19.8459 17.4955L14.3526 12.0041Z" fill="white"/>
</g>
<defs>
<clipPath id="clip0_1023_193">
<rect width="24" height="24" fill="white"/>
</clipPath>
</defs>
</symbol>
    
  </svg>